<mxfile host="app.diagrams.net" agent="Mozilla/5.0 (Windows NT 10.0; Win64; x64) AppleWebKit/537.36 (KHTML, like Gecko) Chrome/131.0.0.0 Safari/537.36 Edg/131.0.0.0" version="25.0.3">
  <diagram name="Page-1" id="5f0bae14-7c28-e335-631c-24af17079c00">
    <mxGraphModel dx="1009" dy="2277" grid="1" gridSize="10" guides="1" tooltips="1" connect="1" arrows="1" fold="1" page="1" pageScale="1" pageWidth="1100" pageHeight="850" background="none" math="0" shadow="0">
      <root>
        <mxCell id="0" />
        <mxCell id="1" parent="0" />
        <mxCell id="39150e848f15840c-5" value="聊天模块&lt;div&gt;（chat.go）&lt;/div&gt;" style="shape=component;align=left;spacingLeft=36;rounded=0;shadow=0;comic=0;labelBackgroundColor=none;strokeWidth=1;fontFamily=Verdana;fontSize=12;html=1;" parent="1" vertex="1">
          <mxGeometry x="120" y="190" width="120" height="60" as="geometry" />
        </mxCell>
        <mxCell id="B_K9nV9L4aLpV1p_OUWh-4" value="构件图" style="shape=note;whiteSpace=wrap;html=1;backgroundOutline=1;darkOpacity=0.05;fontSize=20;" vertex="1" parent="1">
          <mxGeometry x="50" y="-30" width="130" height="60" as="geometry" />
        </mxCell>
        <mxCell id="B_K9nV9L4aLpV1p_OUWh-35" value="" style="edgeStyle=orthogonalEdgeStyle;rounded=1;orthogonalLoop=1;jettySize=auto;html=1;curved=0;strokeColor=default;startArrow=none;startFill=0;endArrow=none;endFill=0;" edge="1" parent="1" source="B_K9nV9L4aLpV1p_OUWh-10" target="B_K9nV9L4aLpV1p_OUWh-26">
          <mxGeometry relative="1" as="geometry" />
        </mxCell>
        <mxCell id="B_K9nV9L4aLpV1p_OUWh-38" style="edgeStyle=orthogonalEdgeStyle;shape=connector;rounded=1;orthogonalLoop=1;jettySize=auto;html=1;entryX=0.5;entryY=1;entryDx=0;entryDy=0;strokeColor=default;align=center;verticalAlign=middle;fontFamily=Helvetica;fontSize=11;fontColor=default;labelBackgroundColor=default;endArrow=none;curved=0;endFill=0;" edge="1" parent="1" source="B_K9nV9L4aLpV1p_OUWh-10" target="B_K9nV9L4aLpV1p_OUWh-36">
          <mxGeometry relative="1" as="geometry">
            <Array as="points">
              <mxPoint x="285" y="130" />
              <mxPoint x="285" y="200" />
              <mxPoint x="320" y="200" />
              <mxPoint x="320" y="180" />
            </Array>
          </mxGeometry>
        </mxCell>
        <mxCell id="B_K9nV9L4aLpV1p_OUWh-10" value="话题模块&lt;div&gt;（topic.go）&lt;/div&gt;" style="shape=component;align=left;spacingLeft=36;rounded=0;shadow=0;comic=0;labelBackgroundColor=none;strokeWidth=1;fontFamily=Verdana;fontSize=12;html=1;" vertex="1" parent="1">
          <mxGeometry x="120" y="100" width="120" height="60" as="geometry" />
        </mxCell>
        <mxCell id="B_K9nV9L4aLpV1p_OUWh-16" value="用户模块&lt;div&gt;(user.go)&lt;/div&gt;" style="shape=component;align=left;spacingLeft=36;rounded=0;shadow=0;comic=0;labelBackgroundColor=none;strokeWidth=1;fontFamily=Verdana;fontSize=12;html=1;" vertex="1" parent="1">
          <mxGeometry x="110" y="350" width="120" height="60" as="geometry" />
        </mxCell>
        <mxCell id="B_K9nV9L4aLpV1p_OUWh-20" value="登陆验证模块&lt;div&gt;（user.go）&lt;/div&gt;" style="shape=component;align=left;spacingLeft=36;rounded=0;shadow=0;comic=0;labelBackgroundColor=none;strokeWidth=1;fontFamily=Verdana;fontSize=12;html=1;" vertex="1" parent="1">
          <mxGeometry x="110" y="470" width="120" height="60" as="geometry" />
        </mxCell>
        <mxCell id="B_K9nV9L4aLpV1p_OUWh-25" value="AI模块&lt;div&gt;（ai.go）&lt;/div&gt;" style="shape=component;align=left;spacingLeft=36;rounded=0;shadow=0;comic=0;labelBackgroundColor=none;strokeWidth=1;fontFamily=Verdana;fontSize=12;html=1;" vertex="1" parent="1">
          <mxGeometry x="260" y="460" width="120" height="60" as="geometry" />
        </mxCell>
        <mxCell id="B_K9nV9L4aLpV1p_OUWh-26" value="查询话题列表" style="ellipse;whiteSpace=wrap;html=1;fontFamily=Verdana;align=left;spacingLeft=36;rounded=0;shadow=0;comic=0;labelBackgroundColor=none;strokeWidth=1;" vertex="1" parent="1">
          <mxGeometry x="330" y="80" width="20" height="20" as="geometry" />
        </mxCell>
        <mxCell id="B_K9nV9L4aLpV1p_OUWh-28" value="界面显示&lt;span style=&quot;background-color: initial;&quot;&gt;模块&lt;/span&gt;" style="shape=component;align=left;spacingLeft=36;rounded=0;shadow=0;comic=0;labelBackgroundColor=none;strokeWidth=1;fontFamily=Verdana;fontSize=12;html=1;" vertex="1" parent="1">
          <mxGeometry x="470" y="160" width="120" height="60" as="geometry" />
        </mxCell>
        <mxCell id="B_K9nV9L4aLpV1p_OUWh-36" value="查询话题信息" style="ellipse;whiteSpace=wrap;html=1;fontFamily=Verdana;align=left;spacingLeft=36;rounded=0;shadow=0;comic=0;labelBackgroundColor=none;strokeWidth=1;" vertex="1" parent="1">
          <mxGeometry x="330" y="160" width="20" height="20" as="geometry" />
        </mxCell>
      </root>
    </mxGraphModel>
  </diagram>
</mxfile>
